:FULLY-SPECIFIED
:FORCE-ALL-JOINTS-BE-3DOF
:DEGREES
437
root 10.515 17.2105 25.6304 8.03871 -2.0355 -0.609708
lfemur -33.4095 4.1396 -24.6815
ltibia 31.9632 0 0
lfoot -6.60801 6.69228 0
ltoes 1.27923 0 0
rfemur -4.62816 -0.704602 19.9683
rtibia 55.5706 0 0
rfoot 13.8333 -3.56167 0
rtoes -10.4088 0 0
lowerback -5.23995 2.11959 -1.09394
upperback -4.67068 2.87792 1.17029
thorax -1.9925 1.49231 1.91771
lowerneck -15.6781 -5.28659 -15.0186
upperneck 22.5756 -6.85958 13.33
head 10.8576 -2.96179 6.44452
lclavicle 2.19002e-14 2.57684e-15 0
lhumerus -43.1091 -3.46104 88.9785
lradius 19.1677 0 0
lwrist -5.26546 0 0
lhand -12.9753 -25.3302 0
lfingers 7.12502 0 0
lthumb 13.1171 4.23744 0
rclavicle 2.19002e-14 2.57684e-15 0
rhumerus -46.6978 9.94113 -90.6931
rradius 29.7779 0 0
rwrist -12.6428 0 0
rhand -34.4397 -18.1126 0
rfingers 7.12502 0 0
rthumb -7.60329 -47.9308 0
438
root 10.5291 17.2324 25.7387 8.02829 -1.92177 -0.706389
lfemur -32.8189 4.1997 -24.6144
ltibia 31.5888 0 0
lfoot -6.83313 6.56032 0
ltoes 0.716842 0 0
rfemur -6.16658 -0.812939 20.1661
rtibia 57.5179 0 0
rfoot 12.0571 -5.27547 0
rtoes -9.93288 0 0
lowerback -4.98741 1.95545 -0.977748
upperback -4.56748 2.65274 1.26082
thorax -2.01403 1.37709 1.92897
lowerneck -16.3333 -5.24756 -14.7734
upperneck 22.7216 -6.72596 13.0993
head 10.9982 -2.88217 6.33485
lclavicle 2.69183e-14 5.28344e-15 0
lhumerus -41.9108 -3.82301 89.1972
lradius 19.0792 0 0
lwrist -5.12203 0 0
lhand -13.2586 -25.298 0
lfingers 7.12502 0 0
lthumb 12.8439 4.28678 0
rclavicle 2.69183e-14 5.28344e-15 0
rhumerus -46.5544 9.96035 -90.5668
rradius 29.8997 0 0
rwrist -12.2849 0 0
rhand -35.6677 -16.7751 0
rfingers 7.12502 0 0
rthumb -8.78877 -46.5609 0
439
root 10.5433 17.2543 25.847 7.93048 -1.78989 -0.631935
lfemur -31.971 4.27498 -24.7621
ltibia 31.1109 0 0
lfoot -7.11285 6.39123 0
ltoes 0.328199 0 0
rfemur -7.43012 -0.997162 20.1013
rtibia 59.1401 0 0
rfoot 10.4679 -6.50573 0
rtoes -9.71383 0 0
lowerback -4.86194 1.77736 -0.979049
upperback -4.4591 2.4151 1.29785
thorax -1.96084 1.25646 1.95397
lowerneck -16.7197 -5.17553 -14.5697
upperneck 22.8437 -6.57714 12.8916
head 11.078 -2.80616 6.24422
lclavicle 2.86498e-14 6.75868e-15 0
lhumerus -40.8572 -4.20007 89.3841
lradius 19.0471 0 0
lwrist -5.06057 0 0
lhand -13.3808 -25.2087 0
lfingers 7.12502 0 0
lthumb 12.7261 4.3835 0
rclavicle 2.86498e-14 6.75868e-15 0
rhumerus -46.545 10.0194 -90.4803
rradius 30.0551 0 0
rwrist -12.0386 0 0
rhand -36.2869 -16.3683 0
rfingers 7.12502 0 0
rthumb -9.38662 -46.1393 0
440
root 10.5712 17.283 26.0081 7.70864 -1.62171 -0.317863
lfemur -30.7452 4.38087 -25.2135
ltibia 30.4531 0 0
lfoot -7.44713 6.15375 0
ltoes 0.148536 0 0
rfemur -8.30666 -1.31156 19.67
rtibia 60.3603 0 0
rfoot 9.03512 -7.18351 0
rtoes -9.74537 0 0
lowerback -4.91156 1.5757 -1.14337
upperback -4.33368 2.15463 1.26152
thorax -1.79423 1.12538 1.9994
lowerneck -16.7672 -5.06201 -14.4163
upperneck 22.9353 -6.40646 12.7057
head 11.0798 -2.73357 6.1744
lclavicle 2.565e-14 6.81252e-15 0
lhumerus -39.9841 -4.59769 89.5574
lradius 19.081 0 0
lwrist -5.10198 0 0
lhand -13.2785 -25.0166 0
lfingers 7.12502 0 0
lthumb 12.8247 4.56913 0
rclavicle 2.565e-14 6.81252e-15 0
rhumerus -46.6983 10.1341 -90.4455
rradius 30.2535 0 0
rwrist -11.9069 0 0
rhand -36.105 -17.2343 0
rfingers 7.12502 0 0
rthumb -9.21107 -47.0137 0
441
root 10.5991 17.3117 26.1691 7.38003 -1.40563 0.187269
lfemur -29.1969 4.50798 -25.9067
ltibia 29.626 0 0
lfoot -7.8115 5.85081 0
ltoes 0.122735 0 0
rfemur -8.84804 -1.7452 18.9524
rtibia 61.2137 0 0
rfoot 7.59986 -7.47648 0
rtoes -9.94914 0 0
lowerback -5.10874 1.34684 -1.43742
upperback -4.17207 1.8647 1.16915
thorax -1.5089 0.979852 2.06422
lowerneck -16.5957 -4.92071 -14.2885
upperneck 23.0074 -6.21894 12.5245
head 11.0301 -2.66204 6.11312
lclavicle 1.85251e-14 5.91937e-15 0
lhumerus -39.2123 -5.03408 89.7448
lradius 19.1656 0 0
lwrist -5.21173 0 0
lhand -12.9706 -24.7113 0
lfingers 7.12502 0 0
lthumb 13.1215 4.85446 0
rclavicle 1.85251e-14 5.91937e-15 0
rhumerus -46.9364 10.2889 -90.4367
rradius 30.4999 0 0
rwrist -11.8405 0 0
rhand -35.2867 -19.1553 0
rfingers 7.12502 0 0
rthumb -8.42119 -48.9613 0
442
root 10.627 17.3404 26.3301 6.99478 -1.16144 0.785719
lfemur -27.4906 4.63465 -26.715
ltibia 28.7278 0 0
lfoot -8.19989 5.52221 0
ltoes 0.192966 0 0
rfemur -9.20738 -2.22748 18.0988
rtibia 61.8053 0 0
rfoot 6.16072 -7.51276 0
rtoes -10.3134 0 0
lowerback -5.38654 1.10189 -1.79595
upperback -3.98429 1.5566 1.0499
thorax -1.15186 0.825217 2.13982
lowerneck -16.3227 -4.7657 -14.1686
upperneck 23.0706 -6.02418 12.345
head 10.9569 -2.59123 6.0551
lclavicle 9.23258e-15 4.43538e-15 0
lhumerus -38.4777 -5.50699 89.9303
lradius 19.2852 0 0
lwrist -5.35511 0 0
lhand -12.5412 -24.3476 0
lfingers 7.12502 0 0
lthumb 13.5352 5.19028 0
rclavicle 9.23258e-15 4.43538e-15 0
rhumerus -47.2041 10.4605 -90.4326
rradius 30.7839 0 0
rwrist -11.8235 0 0
rhand -34.1138 -21.6493 0
rfingers 7.12502 0 0
rthumb -7.28896 -51.492 0
443
root 10.6549 17.3691 26.4912 6.60299 -0.908946 1.37974
lfemur -25.791 4.73925 -27.5116
ltibia 27.8567 0 0
lfoot -8.60625 5.20773 0
ltoes 0.301403 0 0
rfemur -9.53778 -2.6878 17.2593
rtibia 62.2401 0 0
rfoot 4.7163 -7.42047 0
rtoes -10.8263 0 0
lowerback -5.67803 0.851974 -2.15372
upperback -3.78036 1.24164 0.932916
thorax -0.770142 0.666798 2.21756
lowerneck -16.0659 -4.61104 -14.0392
upperneck 23.1359 -5.83174 12.1644
head 10.8886 -2.52079 5.99505
lclavicle -2.70142e-16 2.71672e-15 0
lhumerus -37.716 -6.01414 90.098
lradius 19.4237 0 0
lwrist -5.49738 0 0
lhand -12.0747 -23.9801 0
lfingers 7.12502 0 0
lthumb 13.9849 5.52735 0
rclavicle -2.70142e-16 2.71672e-15 0
rhumerus -47.4459 10.6251 -90.4121
rradius 31.0951 0 0
rwrist -11.8399 0 0
rhand -32.868 -24.2344 0
rfingers 7.12502 0 0
rthumb -6.08637 -54.1155 0
444
root 10.6828 17.3978 26.6523 6.25478 -0.66795 1.8716
lfemur -24.2627 4.80015 -28.1697
ltibia 27.1106 0 0
lfoot -9.02452 4.94718 0
ltoes 0.390217 0 0
rfemur -9.99235 -3.05558 16.5838
rtibia 62.6232 0 0
rfoot 3.26519 -7.3277 0
rtoes -11.4762 0 0
lowerback -5.91628 0.608203 -2.44547
upperback -3.57033 0.93113 0.84735
thorax -0.410783 0.509922 2.28882
lowerneck -15.9428 -4.47079 -13.8828
upperneck 23.2141 -5.6512 11.9798
head 10.8532 -2.45037 5.92768
lclavicle -8.02556e-15 1.11954e-15 0
lhumerus -36.8629 -6.55326 90.2322
lradius 19.5654 0 0
lwrist -5.60382 0 0
lhand -11.6549 -23.6636 0
lfingers 7.12502 0 0
lthumb 14.3894 5.81646 0
rclavicle -8.02556e-15 1.11954e-15 0
rhumerus -47.6067 10.7591 -90.3539
rradius 31.4228 0 0
rwrist -11.8738 0 0
rhand -31.831 -26.4285 0
rfingers 7.12502 0 0
rthumb -5.08541 -56.3418 0
